<svg xmlns="http://www.w3.org/2000/svg" width="16.422" height="14.102" viewBox="0 0 16.422 14.102">
  <g id="Group_17178" data-name="Group 17178" transform="translate(4615.223 -12608.394)">
    <g id="Group_17152" data-name="Group 17152" transform="translate(-4615.224 12608.394)">
      <g id="books" transform="translate(0 0)">
        <g id="Group_17130" data-name="Group 17130" transform="translate(0.419 2.753)">
          <path id="Path_2810" data-name="Path 2810" d="M16.7,96.479H27.335v2.805H16.7Z" transform="translate(-16.696 -96.479)" fill="#8cc253"/>
        </g>
        <path id="Path_2811" data-name="Path 2811" d="M359.331,96.479h1.186v2.805h-1.186Z" transform="translate(-349.459 -93.726)" fill="#8cc253"/>
        <path id="Path_2812" data-name="Path 2812" d="M237.834,96.479H241.2v2.805h-3.366Z" transform="translate(-231.314 -93.726)" fill="#fff"/>
        <g id="Group_17151" data-name="Group 17151" transform="translate(0 0)">
          <g id="Group_17149" data-name="Group 17149" transform="translate(0 0)">
            <g id="Group_17135" data-name="Group 17135" transform="translate(0.933 10.562)">
              <path id="Path_2813" data-name="Path 2813" d="M54.954,393.461H44.4a1.563,1.563,0,1,1,0-3.127H54.954Z" transform="translate(-42.627 -390.127)" fill="#fff"/>
              <path id="Path_2814" data-name="Path 2814" d="M442.168,390.335h1.1v3.127h-1.1Z" transform="translate(-430.944 -390.128)" fill="#e4ecf2"/>
              <g id="Group_17131" data-name="Group 17131">
                <path id="Path_2815" data-name="Path 2815" d="M48.213,386.375H37.1a1.77,1.77,0,1,1,0-3.54H48.213a.207.207,0,1,1,0,.414H37.1a1.356,1.356,0,0,0,0,2.713H48.213a.207.207,0,1,1,0,.414Z" transform="translate(-35.334 -382.834)" fill="#2f4859"/>
              </g>
              <g id="Group_17134" data-name="Group 17134" transform="translate(3.598 1.042)">
                <g id="Group_17132" data-name="Group 17132">
                  <path id="Path_2816" data-name="Path 2816" d="M174.487,421.027h-8.522a.207.207,0,0,1,0-.414h8.522Z" transform="translate(-165.758 -420.613)" fill="#2f4859"/>
                </g>
                <g id="Group_17133" data-name="Group 17133" transform="translate(2.263 1.042)">
                  <path id="Path_2817" data-name="Path 2817" d="M254.244,458.8h-6.259a.207.207,0,1,1,0-.414h6.259Z" transform="translate(-247.778 -458.391)" fill="#2f4859"/>
                </g>
              </g>
            </g>
            <g id="Group_17139" data-name="Group 17139" transform="translate(0 8.125)">
              <path id="Path_2818" data-name="Path 2818" d="M20.285,304.053H10.013a1.012,1.012,0,0,1,0-2.024H20.285v2.024Z" transform="translate(-8.794 -301.822)" fill="#fff"/>
              <path id="Path_2819" data-name="Path 2819" d="M378.028,302.029h1.1v2.024h-1.1Z" transform="translate(-367.64 -301.822)" fill="#6163c5"/>
              <g id="Group_17136" data-name="Group 17136">
                <path id="Path_2820" data-name="Path 2820" d="M13.625,296.966H2.72a1.219,1.219,0,1,1,0-2.437H13.625a.207.207,0,1,1,0,.414H2.72a.8.8,0,0,0,0,1.61H13.625a.207.207,0,1,1,0,.414Z" transform="translate(-1.501 -294.529)" fill="#6163c5"/>
              </g>
              <g id="Group_17138" data-name="Group 17138" transform="translate(8.379 1.055)">
                <g id="Group_17137" data-name="Group 17137">
                  <path id="Path_2821" data-name="Path 2821" d="M308.325,333.175H305.42a.207.207,0,0,1,0-.414h2.905Z" transform="translate(-305.213 -332.761)" fill="#6163c5"/>
                </g>
              </g>
            </g>
            <g id="Group_17141" data-name="Group 17141" transform="translate(2.719)">
              <path id="Path_2822" data-name="Path 2822" d="M133.046,7.5h8.245a1.124,1.124,0,1,1,0,2.248h-8.245Z" transform="translate(-131.929 -7.293)" fill="#fff"/>
              <path id="Path_2823" data-name="Path 2823" d="M392.844,7.5h-.929a.915.915,0,1,1,0,1.828h.929a.915.915,0,1,0,0-1.828Z" transform="translate(-383.688 -7.083)" fill="#1caaf1"/>
              <g id="Group_17140" data-name="Group 17140">
                <path id="Path_2824" data-name="Path 2824" d="M109.214,2.662h-8.948a.207.207,0,0,1,0-.414h8.948a.917.917,0,0,0,0-1.834h-8.948a.207.207,0,0,1,0-.414h8.948a1.331,1.331,0,0,1,0,2.662Z" transform="translate(-100.059 0)" fill="#1caaf1"/>
              </g>
            </g>
            <g id="Group_17144" data-name="Group 17144" transform="translate(1.617 5.622)">
              <g id="Group_17142" data-name="Group 17142">
                <path id="Path_2825" data-name="Path 2825" d="M60.1,203.771H72.4v2.5H60.1Z" transform="translate(-60.099 -203.771)" fill="#f1463e"/>
              </g>
              <path id="Path_2826" data-name="Path 2826" d="M369.834,203.771h3.757v2.5h-3.757Z" transform="translate(-361.289 -203.771)" fill="#f3c5c3"/>
              <path id="Path_2827" data-name="Path 2827" d="M466,203.771h1.1v2.5H466Z" transform="translate(-454.803 -203.771)" fill="#8a5b8e"/>
              <path id="Path_2828" data-name="Path 2828" d="M99.72,234.978H96.906a.414.414,0,1,1,0-.828H99.72a.414.414,0,1,1,0,.828Z" transform="translate(-95.488 -233.312)" fill="#f3c5c3"/>
              <g id="Group_17143" data-name="Group 17143" transform="translate(9.552 1.045)">
                <path id="Path_2829" data-name="Path 2829" d="M407.888,242.064h-1.347a.207.207,0,0,1,0-.414h1.347a.207.207,0,0,1,0,.414Z" transform="translate(-406.334 -241.65)" fill="#fddfff"/>
              </g>
            </g>
            <g id="Group_17148" data-name="Group 17148" transform="translate(7.242 3.677)">
              <g id="Group_17145" data-name="Group 17145" transform="translate(1.508)">
                <path id="Path_2830" data-name="Path 2830" d="M318.874,134.223a.207.207,0,0,1-.207-.207V133.5a.207.207,0,0,1,.414,0v.515A.207.207,0,0,1,318.874,134.223Z" transform="translate(-318.667 -133.294)" fill="#8cc253"/>
              </g>
              <g id="Group_17146" data-name="Group 17146" transform="translate(0.754)">
                <path id="Path_2831" data-name="Path 2831" d="M291.541,134.223a.207.207,0,0,1-.207-.207V133.5a.207.207,0,1,1,.414,0v.515A.207.207,0,0,1,291.541,134.223Z" transform="translate(-291.334 -133.294)" fill="#8cc253"/>
              </g>
              <g id="Group_17147" data-name="Group 17147">
                <path id="Path_2832" data-name="Path 2832" d="M264.208,134.223a.207.207,0,0,1-.207-.207V133.5a.207.207,0,1,1,.414,0v.515A.207.207,0,0,1,264.208,134.223Z" transform="translate(-264.001 -133.294)" fill="#8cc253"/>
              </g>
            </g>
          </g>
          <g id="Group_17150" data-name="Group 17150" transform="translate(3.623 1.124)">
            <path id="Path_2833" data-name="Path 2833" d="M132.834,40.739h4.721a.207.207,0,1,1,0,.414h-4.721Z" transform="translate(-132.834 -40.739)" fill="#1caaf1"/>
          </g>
        </g>
      </g>
      <g id="Group_17153" data-name="Group 17153" transform="translate(10.804 5.232)">
        <g id="Path_2835" data-name="Path 2835" transform="translate(0 4.012)" fill="#fff">
          <path d="M 2.407788276672363 4.665578365325928 C 1.162838220596313 4.665578365325928 0.149998277425766 3.652738332748413 0.149998277425766 2.407788276672363 C 0.149998277425766 1.162838220596313 1.162838220596313 0.149998277425766 2.407788276672363 0.149998277425766 C 3.652738332748413 0.149998277425766 4.665578365325928 1.162838220596313 4.665578365325928 2.407788276672363 C 4.665578365325928 3.652738332748413 3.652738332748413 4.665578365325928 2.407788276672363 4.665578365325928 Z" stroke="none"/>
          <path d="M 2.407788276672363 0.2999982833862305 C 1.245548248291016 0.2999982833862305 0.2999982833862305 1.245548248291016 0.2999982833862305 2.407788276672363 C 0.2999982833862305 3.570028305053711 1.245548248291016 4.515578269958496 2.407788276672363 4.515578269958496 C 3.570028305053711 4.515578269958496 4.515578269958496 3.570028305053711 4.515578269958496 2.407788276672363 C 4.515578269958496 1.245548248291016 3.570028305053711 0.2999982833862305 2.407788276672363 0.2999982833862305 M 2.407788276672363 -1.9073486328125e-06 C 3.737568378448486 -1.9073486328125e-06 4.815578460693359 1.07800817489624 4.815578460693359 2.407788276672363 C 4.815578460693359 3.737568378448486 3.737568378448486 4.815578460693359 2.407788276672363 4.815578460693359 C 1.07800817489624 4.815578460693359 -1.9073486328125e-06 3.737568378448486 -1.9073486328125e-06 2.407788276672363 C -1.9073486328125e-06 1.07800817489624 1.07800817489624 -1.9073486328125e-06 2.407788276672363 -1.9073486328125e-06 Z" stroke="none" fill="#8cc253"/>
        </g>
        <g id="Path_2834" data-name="Path 2834" transform="translate(0.803)" fill="#fff">
          <path d="M 2.407788276672363 4.665578365325928 C 1.162838220596313 4.665578365325928 0.149998277425766 3.652738332748413 0.149998277425766 2.407788276672363 C 0.149998277425766 1.162838220596313 1.162838220596313 0.149998277425766 2.407788276672363 0.149998277425766 C 3.652738332748413 0.149998277425766 4.665578365325928 1.162838220596313 4.665578365325928 2.407788276672363 C 4.665578365325928 3.652738332748413 3.652738332748413 4.665578365325928 2.407788276672363 4.665578365325928 Z" stroke="none"/>
          <path d="M 2.407788276672363 0.2999982833862305 C 1.245548248291016 0.2999982833862305 0.2999982833862305 1.245548248291016 0.2999982833862305 2.407788276672363 C 0.2999982833862305 3.570028305053711 1.245548248291016 4.515578269958496 2.407788276672363 4.515578269958496 C 3.570028305053711 4.515578269958496 4.515578269958496 3.570028305053711 4.515578269958496 2.407788276672363 C 4.515578269958496 1.245548248291016 3.570028305053711 0.2999982833862305 2.407788276672363 0.2999982833862305 M 2.407788276672363 -1.9073486328125e-06 C 3.737568378448486 -1.9073486328125e-06 4.815578460693359 1.07800817489624 4.815578460693359 2.407788276672363 C 4.815578460693359 3.737568378448486 3.737568378448486 4.815578460693359 2.407788276672363 4.815578460693359 C 1.07800817489624 4.815578460693359 -1.9073486328125e-06 3.737568378448486 -1.9073486328125e-06 2.407788276672363 C -1.9073486328125e-06 1.07800817489624 1.07800817489624 -1.9073486328125e-06 2.407788276672363 -1.9073486328125e-06 Z" stroke="none" fill="#f1463e"/>
        </g>
        <path id="Icon_open-check" data-name="Icon open-check" d="M1.814,0l-.2.2L.832.991.6.77.4.566l-.4.4.2.2.425.425.2.2.2-.2L2.018.6l.2-.2L1.814,0Z" transform="translate(1.297 5.523)" fill="#8cc253"/>
        <path id="Icon_ionic-md-close" data-name="Icon ionic-md-close" d="M8.872,7.658l-.135-.135L8.2,8.063l-.539-.539-.135.135.539.539-.539.539.135.135L8.2,8.332l.539.539.135-.135L8.332,8.2Z" transform="translate(-5.022 -5.887)" fill="none" stroke="#f1463e" stroke-width="0.2"/>
      </g>
    </g>
  </g>
</svg>
