<svg id="exam" xmlns="http://www.w3.org/2000/svg" width="10.09" height="14" viewBox="0 0 10.09 14">
  <path id="Path_956" data-name="Path 956" d="M80.91,0H72.188A.684.684,0,0,0,71.5.684c0,.03,0,9.833,0,10.109a.41.41,0,0,0,.107.276h0c.025.028,2.667,2.676,2.756,2.742a.409.409,0,0,0,.345.19h6.2a.684.684,0,0,0,.684-.684V.684A.684.684,0,0,0,80.91,0ZM74.3,12.6l-1.4-1.4h1.4Zm6.472.58H75.122V10.792a.41.41,0,0,0-.41-.41H72.325V.82h8.449V13.18Z" transform="translate(-71.504)" fill="#2f4859"/>
  <path id="Path_957" data-name="Path 957" d="M156.371,114.047a.41.41,0,0,0,.383-.264l.128-.336h.909l.126.335a.41.41,0,0,0,.767-.29l-.91-2.41,0-.011a.466.466,0,0,0-.861,0l0,.009-.918,2.41A.41.41,0,0,0,156.371,114.047Zm.968-1.8.143.378h-.287Z" transform="translate(-153.651 -107.752)" fill="#6163c5"/>
  <path id="Path_958" data-name="Path 958" d="M255.85,62.65h.566v.566a.41.41,0,0,0,.82,0V62.65h.543a.41.41,0,0,0,0-.82h-.543v-.543a.41.41,0,0,0-.82,0v.543h-.566a.41.41,0,0,0,0,.82Z" transform="translate(-250.41 -59.211)" fill="#f1463e"/>
  <path id="Path_959" data-name="Path 959" d="M147.41,278.82h5.141a.41.41,0,0,0,0-.82H147.41a.41.41,0,1,0,0,.82Z" transform="translate(-144.936 -270.398)" fill="#8cc253"/>
  <path id="Path_960" data-name="Path 960" d="M243.985,379.685h-2.57a.41.41,0,0,0,0,.82h2.57a.41.41,0,1,0,0-.82Z" transform="translate(-236.37 -369.303)" fill="#1caaf1"/>
</svg>
