<svg xmlns="http://www.w3.org/2000/svg" width="16.271" height="13.999" viewBox="0 0 16.271 13.999">
  <g id="Group_17195" data-name="Group 17195" transform="translate(4662.135 -12740.165)">
    <g id="online-library" transform="translate(-4662.135 12707.425)">
      <path id="Path_2902" data-name="Path 2902" d="M220.79,383.1l-.285-.886h0l-.133-.413-.8-.755-.749.755-.418,1.3h2.39Z" transform="translate(-211.459 -337.426)" fill="#2f4859"/>
      <path id="Path_2903" data-name="Path 2903" d="M185.121,441.834a.887.887,0,0,0-.8-.509H181.36l-.363.133c-.047,0-.764.276-.764.719a.318.318,0,0,0,.318.318l4.226-.034a.318.318,0,0,0,.318-.318c0-.065.1-.06.09-.121A.879.879,0,0,0,185.121,441.834Z" transform="translate(-174.506 -395.791)" fill="#2f4859"/>
      <path id="Path_2904" data-name="Path 2904" d="M180.448,442.206a.319.319,0,0,1-.318.32h-4.492a.318.318,0,0,1-.318-.317.888.888,0,0,1,.749-.878.91.91,0,0,1,.139-.011h.395l-.219.29a.254.254,0,0,0,.2.407h3.84A.877.877,0,0,1,180.448,442.206Z" transform="translate(-169.748 -395.786)" fill="#2f4859"/>
      <path id="Path_2905" data-name="Path 2905" d="M23.294,352.59v.663c0,.351-.485.512-.836.512l-14.164,0a.635.635,0,0,1-.636-.636L7.5,352.59l8.37-.372Z" transform="translate(-7.262 -309.478)" fill="#8cc253"/>
      <path id="Path_2906" data-name="Path 2906" d="M28.784,40.876v9.651h-15.6l-.011-9.62c0-.351.1-.666.455-.666H28.148A.635.635,0,0,1,28.784,40.876Z" transform="translate(-12.751 -7.262)" fill="none"/>
      <path id="Path_2907" data-name="Path 2907" d="M8.136,49.891V40.24a.635.635,0,0,0-.636.636v9.651H23.294v-.508H8.263A.127.127,0,0,1,8.136,49.891Z" transform="translate(-7.262 -7.262)" fill="#f0e9e6"/>
      <g id="Group_17189" data-name="Group 17189" transform="translate(11.169 35.053)">
        <path id="Path_2908" data-name="Path 2908" d="M366.3,112.968l-1.8.066.2-5.323a.318.318,0,0,1,.318-.318l.115-.143h1.176a.318.318,0,0,1,.318.318v.636l-.553,2.2.553,1.677v.318Z" transform="translate(-364.086 -107.25)" fill="#8cc253"/>
        <path id="Path_2909" data-name="Path 2909" d="M354.011,112.4v.636l-1.065.215-1.065-.215-.414-2.892.414-2.574a.318.318,0,0,1,.318-.318h.318v4.894a.254.254,0,0,0,.254.254Z" transform="translate(-351.468 -107.25)" fill="#999999"/>
        <path id="Path_2910" data-name="Path 2910" d="M364.5,137.25h2.129v3.877H364.5Z" transform="translate(-364.086 -136.297)" fill="#999999"/>
        <path id="Path_2911" data-name="Path 2911" d="M352.518,137.25v3.877h-.636l-.414-1.939.414-1.939Z" transform="translate(-351.468 -136.297)" fill="#999999"/>
      </g>
      <path id="Path_2912" data-name="Path 2912" d="M299.323,91.613l-1.823.12.2-5.984a.318.318,0,0,1,.318-.318l.117-.182h1.176a.318.318,0,0,1,.318.318V86.9l-.371,1.205.371.733V91.1Z" transform="translate(-288.046 -50.841)" fill="#1caaf1"/>
      <path id="Path_2913" data-name="Path 2913" d="M291.894,91.1v.636l-1.065.172-1.065-.172-.254-2.716.254-3.449a.318.318,0,0,1,.318-.318h.318v5.625a.222.222,0,0,0,.222.222Z" transform="translate(-280.311 -50.841)" fill="#999999"/>
      <path id="Path_2914" data-name="Path 2914" d="M299.629,137.25v1.939H297.5l.3-.969-.3-.969Z" transform="translate(-288.046 -101.24)" fill="#999999"/>
      <path id="Path_2915" data-name="Path 2915" d="M288.093,137.25v1.939h-.636l-.33-.842.33-1.1Z" transform="translate(-278.003 -101.24)" fill="#8cc253"/>
      <path id="Path_2916" data-name="Path 2916" d="M140.629,136.271H138.5l.071-4.415a.318.318,0,0,1,.318-.318l.246-.288h1.176a.318.318,0,0,1,.318.318l.809,2.383Z" transform="translate(-134.099 -95.444)" fill="#f1463e"/>
      <path id="Path_2917" data-name="Path 2917" d="M130.4,156.75h2.644v.477H130.4Z" transform="translate(-126.26 -120.124)" fill="#999999"/>
      <g id="Group_17190" data-name="Group 17190" transform="translate(4.144 39.51)">
        <path id="Path_2918" data-name="Path 2918" d="M130.4,248.75h2.644v.477H130.4Z" transform="translate(-130.404 -248.75)" fill="#999999"/>
      </g>
      <path id="Path_2919" data-name="Path 2919" d="M210.8,91.624l-2.651.043.119-5.972a.318.318,0,0,1,.318-.318l.115-.127h1.97a.318.318,0,0,1,.318.318v.365l-.232.238.232.238v1.351l-.384,1.462.384.953V91.1Z" transform="translate(-201.534 -50.841)" fill="#1caaf1"/>
      <g id="Group_17191" data-name="Group 17191" transform="translate(6.724 35.092)">
        <path id="Path_2920" data-name="Path 2920" d="M211.6,106.75h2.73v.477H211.6Z" transform="translate(-211.595 -106.75)" fill="#999999"/>
      </g>
      <path id="Path_2921" data-name="Path 2921" d="M208.424,91.1v.636l-1.53.269-1.393-.269V90.176l.257-.846-.257-1.57V86.41l.032-.238-.032-.238v-.365a.318.318,0,0,1,.318-.318h.318v5.625a.222.222,0,0,0,.222.222Z" transform="translate(-198.969 -50.841)" fill="#999999"/>
      <path id="Path_2922" data-name="Path 2922" d="M205.5,164.25h2.924v2.415H205.5l.138-1.208Z" transform="translate(-198.969 -127.398)" fill="#999999"/>
      <path id="Path_2923" data-name="Path 2923" d="M205.5,164.25h.636v2.415H205.5Z" transform="translate(-198.969 -127.398)" fill="#6163c5"/>
      <g id="Group_17192" data-name="Group 17192" transform="translate(0 32.74)">
        <path id="Path_2924" data-name="Path 2924" d="M15.4,44.612H.874A.868.868,0,0,1,0,43.752V33.6a.868.868,0,0,1,.874-.86H15.4a.868.868,0,0,1,.874.86V43.752A.868.868,0,0,1,15.4,44.612ZM.874,33.209a.4.4,0,0,0-.4.391V43.752a.4.4,0,0,0,.4.391H15.4a.4.4,0,0,0,.4-.391V33.6a.4.4,0,0,0-.4-.391Z" transform="translate(0 -32.74)" fill="#2f4859"/>
      </g>
      <path id="Path_2925" data-name="Path 2925" d="M133.079,135.636v.636l-1.065.215-1.065-.215-.248-2.687.248-2.017a.318.318,0,0,1,.318-.318h.318v.81l-.064.238.064.238v2.447l-.064.313.064.163v.016a.159.159,0,0,0,.159.159Z" transform="translate(-126.548 -95.446)" fill="#999999"/>
      <path id="Path_2926" data-name="Path 2926" d="M135.5,156.75v.477h-.755l.058-.477Z" transform="translate(-130.468 -120.124)" fill="#6163c5"/>
      <path id="Path_2927" data-name="Path 2927" d="M134.76,248.75h.754v.477h-.71Z" transform="translate(-130.477 -209.241)" fill="#6163c5"/>
      <g id="Group_17194" data-name="Group 17194" transform="translate(2.272 34.409)">
        <path id="Path_2928" data-name="Path 2928" d="M78.048,91.733l-1.984-.115.1-5.828a.318.318,0,0,1,.318-.318l.075-.222H77.73a.318.318,0,0,1,.318.318v.365l-.321.238.321.238Z" transform="translate(-75.919 -85.25)" fill="#999999"/>
        <path id="Path_2929" data-name="Path 2929" d="M73.629,91.1v.636l-.992.172L71.5,91.733V90.684l.194-.559-.194-.712v-3l.18-.238-.18-.238v-.365a.318.318,0,0,1,.318-.318h.318v5.688a.159.159,0,0,0,.159.159Z" transform="translate(-71.5 -85.25)" fill="#f1463e"/>
        <path id="Path_2930" data-name="Path 2930" d="M73.629,216.25v1.271H71.5l.194-.559-.194-.712Z" transform="translate(-71.5 -212.087)" fill="#6163c5"/>
        <path id="Path_2931" data-name="Path 2931" d="M71.5,216.25h.636v1.271H71.5Z" transform="translate(-71.5 -212.087)" fill="#999999"/>
        <g id="Group_17193" data-name="Group 17193" transform="translate(0.18 0.683)">
          <path id="Path_2932" data-name="Path 2932" d="M77.176,106.75h1.949v.477H77.176Z" transform="translate(-77.176 -106.75)" fill="#999999"/>
        </g>
        <path id="Path_2933" data-name="Path 2933" d="M71.5,106.75h.636v.477H71.5Z" transform="translate(-71.5 -106.067)" fill="#999999"/>
      </g>
      <path id="Path_2934" data-name="Path 2934" d="M56.244,290.044l12.365.059a.159.159,0,0,0,.159-.159l.137-.25v-.286a.159.159,0,0,0-.159-.159H56.48l-.228.093a.159.159,0,0,0-.159.159l-.007.384A.159.159,0,0,0,56.244,290.044Z" transform="translate(-54.303 -248.474)" fill="#f1463e"/>
      <path id="Path_2935" data-name="Path 2935" d="M65.434,289.695v.35a.159.159,0,0,1-.159.159H52.659a.159.159,0,0,1-.159-.159v-.636a.159.159,0,0,1,.159-.159h.35v.286a.159.159,0,0,0,.159.159Z" transform="translate(-50.832 -248.475)" fill="#999999"/>
      <path id="Path_2936" data-name="Path 2936" d="M205.5,106.75h.636v.477H205.5Z" transform="translate(-198.969 -71.658)" fill="#999999"/>
    </g>
  </g>
</svg>
