<svg xmlns="http://www.w3.org/2000/svg" width="16.271" height="13.999" viewBox="0 0 19 19">
  <g id="Layer_1" transform="translate(-2 -2)">
    <g id="Group_17532" data-name="Group 17532" transform="translate(12.179 10.821)">
      <path id="Path_3342" data-name="Path 3342" d="M24.146,25.179H18.675A1.678,1.678,0,0,1,17,23.5V16.675A1.678,1.678,0,0,1,18.675,15h5.471a1.678,1.678,0,0,1,1.675,1.675V23.5A1.678,1.678,0,0,1,24.146,25.179Zm-5.471-8.821a.318.318,0,0,0-.318.318V23.5a.318.318,0,0,0,.318.318h5.471a.318.318,0,0,0,.318-.318V16.675a.318.318,0,0,0-.318-.318Z" transform="translate(-17 -15)" fill="#f1463e"/>
    </g>
    <g id="Group_17533" data-name="Group 17533" transform="translate(12.179 2)">
      <path id="Path_3343" data-name="Path 3343" d="M24.146,9.464H18.675A1.678,1.678,0,0,1,17,7.789V3.675A1.678,1.678,0,0,1,18.675,2h5.471a1.678,1.678,0,0,1,1.675,1.675V7.789A1.678,1.678,0,0,1,24.146,9.464ZM18.675,3.357a.318.318,0,0,0-.318.318V7.789a.318.318,0,0,0,.318.318h5.471a.318.318,0,0,0,.318-.318V3.675a.318.318,0,0,0-.318-.318Z" transform="translate(-17 -2)" fill="#8cc253"/>
    </g>
    <g id="Group_17534" data-name="Group 17534" transform="translate(2 2)">
      <path id="Path_3344" data-name="Path 3344" d="M9.146,12.179H3.675A1.678,1.678,0,0,1,2,10.5V3.675A1.678,1.678,0,0,1,3.675,2H9.146a1.678,1.678,0,0,1,1.675,1.675V10.5A1.678,1.678,0,0,1,9.146,12.179ZM3.675,3.357a.318.318,0,0,0-.318.318V10.5a.318.318,0,0,0,.318.318H9.146a.318.318,0,0,0,.318-.318V3.675a.318.318,0,0,0-.318-.318Z" transform="translate(-2 -2)" fill="#1caaf1"/>
    </g>
    <g id="Group_17535" data-name="Group 17535" transform="translate(2 13.536)">
      <path id="Path_3345" data-name="Path 3345" d="M9.146,26.464H3.675A1.678,1.678,0,0,1,2,24.789V20.675A1.678,1.678,0,0,1,3.675,19H9.146a1.678,1.678,0,0,1,1.675,1.675v4.114A1.678,1.678,0,0,1,9.146,26.464ZM3.675,20.357a.318.318,0,0,0-.318.318v4.114a.318.318,0,0,0,.318.318H9.146a.318.318,0,0,0,.318-.318V20.675a.318.318,0,0,0-.318-.318Z" transform="translate(-2 -19)" fill="#6163c5"/>
    </g>
  </g>
</svg>
