<svg xmlns="http://www.w3.org/2000/svg" width="19.455" height="19.575" viewBox="0 0 19.455 19.575">
  <g id="document_1_" data-name="document (1)" transform="translate(-32 -32)">
    <path id="Path_3335" data-name="Path 3335" d="M32.437,51.575H46.332V32.437A.437.437,0,0,0,45.895,32H32.437a.437.437,0,0,0-.437.437v18.7A.437.437,0,0,0,32.437,51.575Zm3.324-7.113a.35.35,0,0,1-.252.122H35.5a.35.35,0,0,1-.247-.1L34.2,43.433l.494-.494.782.782,1.852-2.16.531.455Zm2.1,2.8-2.1,2.447a.35.35,0,0,1-.252.122H35.5a.35.35,0,0,1-.247-.1L34.2,48.676l.494-.494.782.782,1.852-2.16Zm2.531,1.87H38.642v-.7h1.748Zm3.5,0h-2.8v-.7h2.8Zm0-1.748H38.642v-.7h5.243Zm-5.243-3.5v-.7h1.748v.7Zm5.243,0h-2.8v-.7h2.8Zm0-1.748H38.642v-.7h5.243ZM44.934,32.7h.7v.7h-.7Zm-1.4,0h.7v.7h-.7ZM36.052,34.13l3.142-1.4a.35.35,0,0,1,.285,0l3.142,1.4a.35.35,0,0,1,.2.374l-.265,1.676v.008A5.72,5.72,0,0,1,40.271,39.8l-.726.528a.35.35,0,0,1-.413,0l-.762-.561a5.722,5.722,0,0,1-2.257-3.588v-.008L35.849,34.5A.35.35,0,0,1,36.052,34.13Zm-3-1.431h2.1v.7h-2.1Zm0,1.4h1.4v.7h-1.4Zm0,8.564a1.225,1.225,0,0,1,1.223-1.223h1.573v.7H34.272a.525.525,0,0,0-.524.524v1.748a.525.525,0,0,0,.524.524H36.02a.525.525,0,0,0,.524-.524v-.175h.7v.175a1.225,1.225,0,0,1-1.223,1.223H34.272a1.225,1.225,0,0,1-1.223-1.223Zm0,5.243a1.225,1.225,0,0,1,1.223-1.223h1.573v.7H34.272a.525.525,0,0,0-.524.524v1.748a.525.525,0,0,0,.524.524H36.02a.525.525,0,0,0,.524-.524v-.175h.7v.175a1.225,1.225,0,0,1-1.223,1.223H34.272a1.225,1.225,0,0,1-1.223-1.223Z" fill="#6163c5"/>
    <path id="Path_3336" data-name="Path 3336" d="M376,52.375V71.06h1.074a.437.437,0,0,0,.431-.364l2.914-17.1a.437.437,0,0,0-.355-.5Z" transform="translate(-328.969 -19.485)" fill="#8cc253"/>
    <path id="Path_3337" data-name="Path 3337" d="M139.059,70.527l.556.41.519-.377a5.024,5.024,0,0,0,2.009-3.165l.222-1.408-2.755-1.228-2.755,1.228.22,1.394A5.025,5.025,0,0,0,139.059,70.527Zm-.6-3.25.8.8,1.85-1.85.494.494-2.1,2.1a.35.35,0,0,1-.494,0l-1.049-1.049Z" transform="translate(-100.274 -31.328)" fill="#f1463e"/>
  </g>
</svg>
