<svg xmlns="http://www.w3.org/2000/svg" width="13.745" height="14" viewBox="0 0 13.745 14">
  <g id="Group_17316" data-name="Group 17316" transform="translate(4938 -12964)">
    <g id="Group_17314" data-name="Group 17314" transform="translate(-4938 12964)">
      <path id="Path_3062" data-name="Path 3062" d="M41.018,140H52.727a1.018,1.018,0,0,1,1.018,1.018v6.618H40v-6.618A1.018,1.018,0,0,1,41.018,140Z" transform="translate(-40 -136.691)" fill="#8cc253"/>
      <path id="Path_3063" data-name="Path 3063" d="M41.018,140H51.709a1.018,1.018,0,0,1,1.018,1.018v6.618H40v-6.618A1.018,1.018,0,0,1,41.018,140Z" transform="translate(-40 -136.691)" fill="#1caaf1"/>
      <path id="Path_3064" data-name="Path 3064" d="M1.018,0H12.727a1.018,1.018,0,0,1,1.018,1.018v.255H0V1.018A1.018,1.018,0,0,1,1.018,0Z" transform="translate(13.745 12.218) rotate(180)" fill="#2f4859"/>
      <path id="Path_3065" data-name="Path 3065" d="M40,380H52.727v.255a1.018,1.018,0,0,1-1.018,1.018H41.018A1.018,1.018,0,0,1,40,380.255Z" transform="translate(-40 -369.055)" fill="#2f4859"/>
      <path id="Path_3066" data-name="Path 3066" d="M208,420h2.291v1.018H208Z" transform="translate(-202.655 -407.782)" fill="#2f4859"/>
      <path id="Path_3067" data-name="Path 3067" d="M208,436h1.527v.509H208Z" transform="translate(-202.655 -423.273)" fill="#2f4859"/>
      <path id="Path_3068" data-name="Path 3068" d="M160.509,452h4.073a.509.509,0,0,1,.509.509v.254H160v-.254A.509.509,0,0,1,160.509,452Z" transform="translate(-156.182 -438.764)" fill="#2f4859"/>
      <path id="Path_3069" data-name="Path 3069" d="M272.509,452h.509a.509.509,0,0,1,.509.509v.254H272v-.254A.509.509,0,0,1,272.509,452Z" transform="translate(-264.618 -438.764)" fill="#2f4859"/>
      <path id="Path_3070" data-name="Path 3070" d="M97.672,46.945H88V37.018A1.018,1.018,0,0,1,89.018,36h6.109l2.545,2.291Z" transform="translate(-86.473 -36)" fill="#f1463e"/>
      <g id="Group_17313" data-name="Group 17313" transform="translate(2.469)">
        <path id="Path_3071" data-name="Path 3071" d="M312,36v1.273a1.018,1.018,0,0,0,1.019,1.018h1.527Z" transform="translate(-305.815 -36)" fill="#fff"/>
        <circle id="Ellipse_55" data-name="Ellipse 55" cx="1.518" cy="1.518" r="1.518" transform="translate(0 0.911)" fill="#fff"/>
        <rect id="Rectangle_853" data-name="Rectangle 853" width="2.125" height="0.911" rx="0.455" transform="translate(3.642 1.214)" fill="#fff"/>
        <rect id="Rectangle_854" data-name="Rectangle 854" width="3.035" height="0.911" rx="0.455" transform="translate(3.642 2.732)" fill="#fff"/>
        <rect id="Rectangle_855" data-name="Rectangle 855" width="5.006" height="0.764" rx="0.382" transform="translate(0.161 5.854)" fill="#fff"/>
        <rect id="Rectangle_856" data-name="Rectangle 856" width="5.006" height="0.764" rx="0.382" transform="translate(0.161 8.909)" fill="#fff"/>
      </g>
      <path id="Path_3072" data-name="Path 3072" d="M312.764,180a.765.765,0,0,0-.764.764v1.018a.255.255,0,0,0,.509,0v-.509h.509v.509a.254.254,0,0,0,.509,0v-1.018A.765.765,0,0,0,312.764,180Zm-.254.764a.255.255,0,1,1,.509,0Z" transform="translate(-303.346 -175.418)" fill="#fff"/>
      <path id="Path_3073" data-name="Path 3073" d="M313.273,276h-1.018a.255.255,0,0,0-.255.255v1.527a.255.255,0,0,0,.509,0v-.509h.509a.255.255,0,0,0,0-.509h-.509v-.255h.764a.254.254,0,1,0,0-.509Z" transform="translate(-303.346 -268.364)" fill="#fff"/>
      <g id="graduated" transform="translate(3.195 1.358)">
        <g id="Group_17117" data-name="Group 17117" transform="translate(0 0)">
          <g id="Group_17106" data-name="Group 17106" transform="translate(0 1.058)">
            <path id="Path_2779" data-name="Path 2779" d="M157.275,243.817l.231-.252v-.307h.4v.307l.228.252Z" transform="translate(-156.832 -243.258)" fill="#fff"/>
            <path id="Path_2780" data-name="Path 2780" d="M55.229,321.8l.207-.061.183.21.317-.363.336.1a.309.309,0,0,1,.222.3v.325a.11.11,0,0,1-.109.109h-.148l-.027-.02H56.2l-.027.02h-1.1l-.039-.028H55v-.277A.322.322,0,0,1,55.229,321.8Z" transform="translate(-54.744 -321.244)" fill="#6163c5"/>
            <path id="Path_2781" data-name="Path 2781" d="M293.037,321.678l.336-.1.157.179-.209.062a.308.308,0,0,0-.221.3v.264h-.027v.028h-.148a.109.109,0,0,1-.109-.109v-.325A.308.308,0,0,1,293.037,321.678Z" transform="translate(-292.816 -321.239)" fill="#6163c5"/>
            <g id="Group_17105" data-name="Group 17105" transform="translate(0.257 0.957)">
              <g id="Group_17104" data-name="Group 17104">
                <g id="Group_17103" data-name="Group 17103">
                  <g id="Group_17102" data-name="Group 17102">
                    <path id="Path_2782" data-name="Path 2782" d="M114.1,463.457v-.179a.034.034,0,0,1,.067,0v.179Z" transform="translate(-112.936 -463.245)" fill="#fff"/>
                    <path id="Path_2783" data-name="Path 2783" d="M382.411,463.457v-.179a.033.033,0,0,1,.067,0v.179Z" transform="translate(-382.411 -463.245)" fill="#fff"/>
                  </g>
                </g>
              </g>
            </g>
          </g>
          <g id="Group_17114" data-name="Group 17114" transform="translate(0.155 0)">
            <g id="Group_17113" data-name="Group 17113" transform="translate(0)">
              <path id="Path_2784" data-name="Path 2784" d="M73.323,142.489l.034-.038h.074l.034.038.045.267a.041.041,0,0,1-.041.048h-.152a.041.041,0,0,1-.041-.048Z" transform="translate(-71.997 -141.831)" fill="#e4f6ff"/>
              <path id="Path_2785" data-name="Path 2785" d="M92.514,51.46v-.337a.034.034,0,1,1,.067,0v.337Z" transform="translate(-91.151 -50.867)" fill="#6163c5"/>
              <g id="Group_17110" data-name="Group 17110" transform="translate(0.29 0.229)">
                <g id="Group_17109" data-name="Group 17109" transform="translate(0)">
                  <g id="Group_17108" data-name="Group 17108" transform="translate(0)">
                    <g id="Group_17107" data-name="Group 17107">
                      <path id="Path_2786" data-name="Path 2786" d="M157.344,52.607h.373a.244.244,0,0,1,.244.244v.235l-.04.036h-.82v-.271A.244.244,0,0,1,157.344,52.607Z" transform="translate(-157.1 -52.607)" fill="#efc984"/>
                    </g>
                  </g>
                </g>
              </g>
              <path id="Path_2787" data-name="Path 2787" d="M290.088,52.607h.039v.515h-.246l-.037-.036v-.235A.244.244,0,0,1,290.088,52.607Z" transform="translate(-289.554 -52.378)" fill="#eabc6b"/>
              <g id="Group_17111" data-name="Group 17111" transform="translate(0.54 0.522)">
                <path id="Path_2788" data-name="Path 2788" d="M157.3,120.739h-.012a.36.36,0,0,1-.167-.287v-.426h.463v.112a.074.074,0,0,0,.074.074h.073v.121a.056.056,0,0,1-.056.056.019.019,0,0,0-.019.017A.357.357,0,0,1,157.3,120.739Z" transform="translate(-157.117 -120.025)" fill="#ffe07d"/>
              </g>
              <path id="Path_2789" data-name="Path 2789" d="M247.06,120.211a.073.073,0,0,0,.073-.074v-.112h.136v.415a.357.357,0,0,0,.186.3l-.039,0a.357.357,0,0,1-.356-.334.018.018,0,0,0-.018-.017.056.056,0,0,1-.056-.056v-.121Z" transform="translate(-246.697 -119.503)" fill="#ffe07d"/>
              <path id="Path_2790" data-name="Path 2790" d="M90.54.379V.3a.075.075,0,0,0,.074-.075V.072l.031-.05L90.708,0a.038.038,0,0,1,.023,0l.682.217a.038.038,0,0,1-.005.074L90.72.41Z" transform="translate(-90 0)" fill="#6163c5"/>
              <path id="Path_2791" data-name="Path 2791" d="M150.763,64.379l.1-.012a.655.655,0,0,1,.161,0l.377.047v.168a.033.033,0,0,1-.033.033h-.6Z" transform="translate(-150.223 -64.082)" fill="#6163c5"/>
              <g id="Group_17112" data-name="Group 17112" transform="translate(0 0.022)">
                <path id="Path_2792" data-name="Path 2792" d="M273.055,5.187l.619-.2v.2a.074.074,0,0,1-.073.074v.092l-.541-.092A.038.038,0,0,1,273.055,5.187Z" transform="translate(-273.029 -4.99)" fill="#6163c5"/>
              </g>
              <path id="Path_2793" data-name="Path 2793" d="M290.156,67.4v.239h-.278a.033.033,0,0,1-.033-.033V67.44Z" transform="translate(-289.583 -67.109)" fill="#6163c5"/>
              <path id="Path_2794" data-name="Path 2794" d="M83.854,121.527H84v-.094a.036.036,0,0,0-.036-.036H83.89a.036.036,0,0,0-.036.036Z" transform="translate(-82.528 -120.869)" fill="#ffe07d"/>
            </g>
          </g>
          <g id="Group_17115" data-name="Group 17115" transform="translate(0.361 1.253)">
            <path id="Path_2795" data-name="Path 2795" d="M256.312,287.969a.677.677,0,0,0,.109.367l.092.142-.514-.305Z" transform="translate(-256 -287.969)" fill="#6163c5"/>
            <path id="Path_2796" data-name="Path 2796" d="M138.161,287.969a.674.674,0,0,1-.109.367l-.092.142.513-.305Z" transform="translate(-137.446 -287.969)" fill="#6163c5"/>
          </g>
          <g id="Group_17116" data-name="Group 17116" transform="translate(0.703 1.45)">
            <path id="Path_2797" data-name="Path 2797" d="M216.6,333.411a.821.821,0,0,0,.343,0,.668.668,0,0,1-.079.17l-.092.141-.092-.141A.676.676,0,0,1,216.6,333.411Z" transform="translate(-216.598 -333.411)" fill="#f4fbff"/>
          </g>
        </g>
      </g>
    </g>
  </g>
</svg>
