<svg xmlns="http://www.w3.org/2000/svg" width="33.222" height="28.669" viewBox="0 0 33.222 28.669">
  <g id="cogwheel" transform="translate(0 -35.087)">
    <path id="Path_3338" data-name="Path 3338" d="M22.814,125.547a22.769,22.769,0,0,0-2.414-.479,8.827,8.827,0,0,0-1.17-2.824A22.808,22.808,0,0,0,20.6,120.2a.865.865,0,0,0-.133-1.054l-.874-.874a.865.865,0,0,0-1.054-.133,22.794,22.794,0,0,0-2.046,1.369,8.829,8.829,0,0,0-2.824-1.17,22.779,22.779,0,0,0-.479-2.414.865.865,0,0,0-.839-.651H11.115a.865.865,0,0,0-.839.651,22.762,22.762,0,0,0-.479,2.414,8.827,8.827,0,0,0-2.824,1.17,22.8,22.8,0,0,0-2.046-1.369.865.865,0,0,0-1.054.133L3,119.145a.865.865,0,0,0-.133,1.054,22.8,22.8,0,0,0,1.369,2.046,8.829,8.829,0,0,0-1.17,2.824,22.784,22.784,0,0,0-2.414.479.865.865,0,0,0-.651.839v1.236a.865.865,0,0,0,.651.839,22.769,22.769,0,0,0,2.414.479,8.827,8.827,0,0,0,1.17,2.824,22.8,22.8,0,0,0-1.369,2.046A.865.865,0,0,0,3,134.863l.874.874a.865.865,0,0,0,1.054.133A22.779,22.779,0,0,0,6.973,134.5a8.829,8.829,0,0,0,2.824,1.17,22.779,22.779,0,0,0,.479,2.414.865.865,0,0,0,.839.651h1.236a.865.865,0,0,0,.839-.651,22.763,22.763,0,0,0,.479-2.414,8.826,8.826,0,0,0,2.824-1.17,22.822,22.822,0,0,0,2.046,1.369.865.865,0,0,0,1.054-.133l.874-.874a.865.865,0,0,0,.133-1.054,22.8,22.8,0,0,0-1.369-2.046,8.829,8.829,0,0,0,1.17-2.824,22.8,22.8,0,0,0,2.414-.479.865.865,0,0,0,.651-.839v-1.236A.865.865,0,0,0,22.814,125.547Zm-11.082,7.181A5.724,5.724,0,1,1,17.457,127,5.724,5.724,0,0,1,11.733,132.728Z" transform="translate(0 -74.981)" fill="#6163c5"/>
    <g id="Group_17530" data-name="Group 17530" transform="translate(12.402 46.299)" opacity="0.1">
      <path id="Path_3339" data-name="Path 3339" d="M197.531,213.6a5.724,5.724,0,0,0-5.724-5.724,5.783,5.783,0,0,0-.669.04,5.723,5.723,0,0,1,0,11.367,5.716,5.716,0,0,0,6.393-5.684Z" transform="translate(-191.138 -207.878)" fill="#7f3486"/>
    </g>
    <path id="Path_3340" data-name="Path 3340" d="M341.472,40.259a11.473,11.473,0,0,0-1.215-.241,4.442,4.442,0,0,0-.589-1.421,11.51,11.51,0,0,0,.689-1.029.435.435,0,0,0-.067-.53l-.44-.44a.435.435,0,0,0-.53-.067,11.464,11.464,0,0,0-1.029.689,4.444,4.444,0,0,0-1.421-.589,11.457,11.457,0,0,0-.241-1.215.435.435,0,0,0-.422-.328h-.622a.435.435,0,0,0-.422.328,11.463,11.463,0,0,0-.241,1.215,4.443,4.443,0,0,0-1.421.589,11.507,11.507,0,0,0-1.03-.689.435.435,0,0,0-.53.067l-.44.44a.435.435,0,0,0-.067.53,11.458,11.458,0,0,0,.689,1.029,4.445,4.445,0,0,0-.589,1.421,11.451,11.451,0,0,0-1.215.241.435.435,0,0,0-.328.422V41.3a.435.435,0,0,0,.328.422,11.472,11.472,0,0,0,1.215.241,4.445,4.445,0,0,0,.589,1.421,11.491,11.491,0,0,0-.689,1.03.435.435,0,0,0,.067.53l.44.44a.435.435,0,0,0,.53.067,11.473,11.473,0,0,0,1.03-.689,4.443,4.443,0,0,0,1.421.589,11.441,11.441,0,0,0,.241,1.215.435.435,0,0,0,.422.328h.622a.435.435,0,0,0,.422-.328,11.479,11.479,0,0,0,.241-1.215,4.444,4.444,0,0,0,1.421-.589,11.5,11.5,0,0,0,1.029.689.435.435,0,0,0,.53-.067l.44-.44a.435.435,0,0,0,.067-.53,11.472,11.472,0,0,0-.689-1.03,4.442,4.442,0,0,0,.589-1.421,11.451,11.451,0,0,0,1.215-.241.435.435,0,0,0,.328-.422v-.622A.435.435,0,0,0,341.472,40.259ZM335.895,43.3a2.31,2.31,0,1,1,2.31-2.31A2.31,2.31,0,0,1,335.895,43.3Z" transform="translate(-308.578 0)" fill="#f1463e"/>
    <g id="Group_17531" data-name="Group 17531" transform="translate(27.685 38.682)" opacity="0.1">
      <path id="Path_3341" data-name="Path 3341" d="M427.035,90.49a2.325,2.325,0,0,0-.368.03,2.31,2.31,0,0,1,0,4.561,2.31,2.31,0,1,0,.368-4.591Z" transform="translate(-426.667 -90.49)" fill="#7f3486"/>
    </g>
  </g>
</svg>
