<svg xmlns="http://www.w3.org/2000/svg" width="26.486" height="22.381" viewBox="0 0 12.486 14.381">
  <g id="Group_17649" data-name="Group 17649" transform="translate(4552.705 -12739.712)">
    <path id="Path_3333" data-name="Path 3333" d="M174.343,357.135l-.54.54-.5-.494v2.54l-7.645.017v-1.93l.7-.017v1.158h6.176v-1.768l-.5.494-.54-.54,1.428-1.436Z" transform="translate(-4714.562 12394.354)" fill="#8F008A"/>
    <path id="Path_3334" data-name="Path 3334" d="M30.195,0V2.135h-.854V.854H22.508V2.81l.555-.547.6.6L22.081,4.45,20.5,2.861l.6-.6.555.547V0Z" transform="translate(-4573.206 12739.712)" fill="#8F008A"/>
    <g id="Group_17648" data-name="Group 17648" transform="translate(-4547.584 12742.858)">
      <g id="Group_17644" data-name="Group 17644" transform="translate(0)">
        <path id="Path_3336" data-name="Path 3336" d="M187.993,90.634v4.479H181V90.634l.634-.634h5.726Z" transform="translate(-181 -89.366)" fill="#f3f5f9"/>
        <path id="Path_3338" data-name="Path 3338" d="M181,60h6.993v1.268H181Z" transform="translate(-181 -60)" fill="#8F008A"/>
      </g>
    </g>
    <g id="Group_17647" data-name="Group 17647" transform="translate(-4551.409 12745.415)">
      <g id="Group_17645" data-name="Group 17645">
        <path id="Path_3340" data-name="Path 3340" d="M6.993,211.634v4.458H0v-4.458L.634,211H6.359Z" transform="translate(0 -210.367)" fill="#f3f5f9"/>
        <path id="Path_3342" data-name="Path 3342" d="M0,181H6.993v1.268H0Z" transform="translate(0 -181)" fill="#8F008A"/>
      </g>
      <g id="Group_17646" data-name="Group 17646" transform="translate(1.289 2.556)">
        <path id="Path_3343" data-name="Path 3343" d="M121,302h3.169v.634H121Z" transform="translate(-119.732 -302)" fill="#ecd2ee"/>
        <path id="Path_3344" data-name="Path 3344" d="M121,362h3.169v.634H121Z" transform="translate(-119.732 -360.732)" fill="#ecd2ee"/>
        <path id="Path_3345" data-name="Path 3345" d="M61,302h.634v.634H61Z" transform="translate(-61 -302)" fill="#8F008A"/>
        <path id="Path_3346" data-name="Path 3346" d="M61,362h.634v.634H61Z" transform="translate(-61 -360.732)" fill="#8F008A"/>
        <path id="Path_3347" data-name="Path 3347" d="M166,302h2.218v.634H166Z" transform="translate(-163.782 -302)" fill="#e6baea"/>
        <path id="Path_3348" data-name="Path 3348" d="M166,362h2.218v.634H166Z" transform="translate(-163.782 -360.732)" fill="#e6baea"/>
      </g>
    </g>
  </g>
</svg>
