<svg xmlns="http://www.w3.org/2000/svg" width="19.792" height="19" viewBox="0 0 19.792 19">
  <g id="analytics" transform="translate(-2.081 -5)">
    <path id="Path_3346" data-name="Path 3346" d="M34.665,28.181H16.881V9.838H17.3V27.766H34.665Z" transform="translate(-12.791 -4.181)" fill="#6163c5"/>
    <path id="Path_3347" data-name="Path 3347" d="M28.272,91.229h2.654v6.882H28.272Z" transform="translate(-22.637 -74.526)" fill="#1caaf1"/>
    <path id="Path_3348" data-name="Path 3348" d="M57.852,68.182h2.654v10.01H57.852Z" transform="translate(-48.202 -54.607)" fill="#8cc253"/>
    <path id="Path_3349" data-name="Path 3349" d="M87.453,77.123h2.654v8.8H87.453Z" transform="translate(-73.786 -62.335)" fill="#6163c5"/>
    <path id="Path_3350" data-name="Path 3350" d="M117.033,39.6h2.654V53.49h-2.654Z" transform="translate(-99.351 -29.906)" fill="#f1463e"/>
    <path id="Path_3351" data-name="Path 3351" d="M31.456,17.862l-.224-.507L35.255,14.3l4.206,1.64L44,11l.41.374-4.754,5.175-4.341-1.668Z" transform="translate(-25.195 -5.187)" fill="#3a556a"/>
    <circle id="Ellipse_71" data-name="Ellipse 71" cx="1.189" cy="1.189" r="1.189" transform="translate(13.088 9.696)" fill="#6163c5"/>
    <path id="Path_3352" data-name="Path 3352" d="M118.221,5a1.189,1.189,0,1,0,1.189,1.189A1.189,1.189,0,0,0,118.221,5Z" transform="translate(-99.351)" fill="#f1463e"/>
    <path id="Path_3353" data-name="Path 3353" d="M121.4,8.675a.69.69,0,1,0,.69.69A.69.69,0,0,0,121.4,8.675Z" transform="translate(-102.527 -3.176)" fill="#e1e6e9"/>
    <path id="Path_3354" data-name="Path 3354" d="M87.552,43.276a.69.69,0,1,0,.014,0Z" transform="translate(-73.275 -33.081)" fill="#e1e6e9"/>
    <path id="Path_3355" data-name="Path 3355" d="M53.529,29.7a1.189,1.189,0,1,0,1.189,1.189A1.189,1.189,0,0,0,53.529,29.7Z" transform="translate(-43.438 -21.349)" fill="#8cc253"/>
    <path id="Path_3356" data-name="Path 3356" d="M24.949,50.217a1.189,1.189,0,1,0,1.189,1.189A1.189,1.189,0,0,0,24.949,50.217Z" transform="translate(-18.737 -39.08)" fill="#1caaf1"/>
    <path id="Path_3357" data-name="Path 3357" d="M56.669,33.355a.693.693,0,1,0,.69.7v0a.69.69,0,0,0-.687-.693Z" transform="translate(-46.579 -24.507)" fill="#e1e6e9"/>
    <path id="Path_3358" data-name="Path 3358" d="M28.125,53.892a.69.69,0,1,0,.69.69A.69.69,0,0,0,28.125,53.892Z" transform="translate(-21.913 -42.257)" fill="#e1e6e9"/>
    <g id="Group_17536" data-name="Group 17536" transform="translate(2.081 6.363)">
      <path id="Path_3359" data-name="Path 3359" d="M2.081,15.044H3.544V15.4H2.081Z" transform="translate(-2.081 -15.044)" fill="#2f4859"/>
      <path id="Path_3360" data-name="Path 3360" d="M2.081,27.088H3.544v.355H2.081Z" transform="translate(-2.081 -25.453)" fill="#2f4859"/>
      <path id="Path_3361" data-name="Path 3361" d="M2.081,39.112H3.544v.355H2.081Z" transform="translate(-2.081 -35.846)" fill="#2f4859"/>
      <path id="Path_3362" data-name="Path 3362" d="M2.081,51.136H3.544v.355H2.081Z" transform="translate(-2.081 -46.238)" fill="#2f4859"/>
      <path id="Path_3363" data-name="Path 3363" d="M2.081,63.16H3.544v.355H2.081Z" transform="translate(-2.081 -56.63)" fill="#2f4859"/>
      <path id="Path_3364" data-name="Path 3364" d="M2.081,75.2H3.544v.355H2.081Z" transform="translate(-2.081 -67.039)" fill="#2f4859"/>
      <path id="Path_3365" data-name="Path 3365" d="M2.081,87.228H3.544v.355H2.081Z" transform="translate(-2.081 -77.432)" fill="#2f4859"/>
      <path id="Path_3366" data-name="Path 3366" d="M2.081,99.252H3.544v.355H2.081Z" transform="translate(-2.081 -87.824)" fill="#2f4859"/>
      <path id="Path_3367" data-name="Path 3367" d="M2.081,111.276H3.544v.355H2.081Z" transform="translate(-2.081 -98.216)" fill="#2f4859"/>
      <path id="Path_3368" data-name="Path 3368" d="M2.081,123.32H3.544v.355H2.081Z" transform="translate(-2.081 -108.625)" fill="#2f4859"/>
      <path id="Path_3369" data-name="Path 3369" d="M2.081,135.344H3.544v.355H2.081Z" transform="translate(-2.081 -119.018)" fill="#2f4859"/>
    </g>
  </g>
</svg>
